<svg width="72" height="48" viewBox="0 0 72 48" fill="none" xmlns="http://www.w3.org/2000/svg">
<path d="M16.3431 1.6V3.58H1.36313V1.6H7.56313V0.159999H10.2031V1.6H16.3431ZM5.08313 15.1V16.56H12.6231V15.1H5.08313ZM2.50313 18.5V13.16H15.2231V18.5H2.50313ZM5.54313 6.66C5.54313 7.26 6.60313 7.52 8.88313 7.52C11.1831 7.52 12.2231 7.26 12.2231 6.66C12.2231 6.06 11.1831 5.82 8.88313 5.82C6.60313 5.82 5.54313 6.06 5.54313 6.66ZM10.2031 10.16H17.2231V12.2H0.543125V10.16H7.56313V9.24C4.46313 9.06 2.72313 8.2 2.72313 6.66C2.72313 4.92 4.94313 4.04 8.88313 4.04C12.8431 4.04 15.0631 4.92 15.0631 6.66C15.0631 8.2 13.3231 9.06 10.2031 9.24V10.16ZM22.5816 4.48V12.34C23.0216 12.34 23.5016 12.32 23.9416 12.28V4.48H22.5816ZM26.3016 4.48V12.12C26.8016 12.06 27.3016 12.02 27.7416 11.96L27.9216 13.86C25.0616 14.48 21.3416 14.54 19.0616 14.54L18.7816 12.4C19.2216 12.4 19.7016 12.4 20.2216 12.4V4.48H19.1016V2.38H27.4816V4.48H26.3016ZM28.7816 7.02V0.679999H31.2416V17.88H28.7816V9.32H27.0216V7.02H28.7816ZM32.4416 0.299999H34.9416V18.74H32.4416V0.299999ZM49.98 0.279999H52.62V18.76H49.98V0.279999ZM42.72 1.58C45.5 1.58 47.56 4.1 47.56 8.14C47.56 12.2 45.5 14.74 42.72 14.74C39.94 14.74 37.88 12.2 37.88 8.14C37.88 4.1 39.94 1.58 42.72 1.58ZM42.72 3.96C41.36 3.96 40.42 5.42 40.42 8.14C40.42 10.88 41.36 12.34 42.72 12.34C44.08 12.34 45.02 10.88 45.02 8.14C45.02 5.42 44.08 3.96 42.72 3.96ZM62.8784 4.24V5.26C62.8784 8.26 64.3584 11.44 67.4384 12.72L65.9984 14.8C63.8584 13.88 62.3984 12.08 61.5784 9.86C60.7584 12.26 59.2784 14.28 57.1184 15.26L55.6184 13.16C58.6984 11.78 60.1984 8.4 60.1984 5.26V4.24H56.3584V2.06H66.6784V4.24H62.8784ZM68.3784 0.299999H71.0184V18.72H68.3784V0.299999ZM7.44313 41.36V37.28H3.74313V41.36H7.44313ZM7.44313 35.22V30.76H10.0631V43.46H1.12313V30.76H3.74313V35.22H7.44313ZM17.6631 36.16V38.36H14.9831V47.72H12.3431V29.32H14.9831V36.16H17.6631ZM28.6016 43.54H35.6416V45.7H18.9616V43.54H25.9616V40.8H20.8816V34.56H31.1616V32.58H20.8616V30.48H33.7616V36.62H23.5016V38.68H34.1816V40.8H28.6016V43.54ZM38.2 31.18H46.88C46.88 36.7 44.78 41.44 38.66 44.54L37.18 42.52C41.46 40.32 43.74 37.4 44.22 33.32H38.2V31.18ZM54.36 36.32V38.5H51.78V47.68H49.14V29.28H51.78V36.32H54.36ZM56.7784 31.2H65.6184C65.6184 36.84 63.7184 41.44 57.1784 44.6L55.7984 42.52C60.4984 40.26 62.5384 37.38 62.9184 33.3H56.7784V31.2ZM68.4384 29.28H71.0984V47.7H68.4384V29.28Z" fill="#79BD28"/>
</svg>
