<svg width="21" height="18" viewBox="0 0 21 18" fill="none" xmlns="http://www.w3.org/2000/svg">
<path d="M9 5.23524H16.5294M9 8.99994H11.3529M16.5294 8.99994H14.1765M9 12.7646H11.3529M16.5294 12.7646H14.1765M5.70588 4.76465H4.76471C2.98965 4.76465 2.10306 4.76465 1.55153 5.31618C1 5.86771 1 6.7543 1 8.52935V14.647C1 15.271 1.2479 15.8695 1.68916 16.3108C2.13042 16.752 2.7289 16.9999 3.35294 16.9999C3.97698 16.9999 4.57546 16.752 5.01672 16.3108C5.45798 15.8695 5.70588 15.271 5.70588 14.647V4.76465Z" stroke="#0054A7" stroke-width="1.5" stroke-linecap="round" stroke-linejoin="round"/>
<path d="M14.1764 1H9.47055C8.59526 1 8.15761 1 7.79902 1.096C7.32008 1.22424 6.88336 1.47633 6.53276 1.82692C6.18217 2.17751 5.93008 2.61424 5.80185 3.09318C5.70585 3.45176 5.70585 3.88941 5.70585 4.76471V14.6471C5.70585 14.9561 5.64499 15.262 5.52674 15.5475C5.40849 15.833 5.23518 16.0923 5.01669 16.3108C4.7982 16.5293 4.53881 16.7026 4.25334 16.8209C3.96786 16.9391 3.6619 17 3.35291 17H14.1764C16.8381 17 18.1698 17 18.9962 16.1727C19.8235 15.3464 19.8235 14.0146 19.8235 11.3529V6.64706C19.8235 3.98541 19.8235 2.65365 18.9962 1.82729C18.1698 1 16.8381 1 14.1764 1Z" stroke="#0054A7" stroke-width="1.5" stroke-linecap="round" stroke-linejoin="round"/>
</svg>
